<svg version="1.1" id="Layer_1" xmlns="http://www.w3.org/2000/svg" xmlns:xlink="http://www.w3.org/1999/xlink" x="0px" y="0px"
	 width="100%" viewBox="0 0 50 55" enable-background="new 0 0 50 55" xml:space="preserve">
<path fill="#FDFEFE" opacity="1.000000" stroke="none" 
	d="
M24.000088,56.000000 
	C16.018005,56.000000 8.535904,56.000000 1.026901,56.000000 
	C1.026901,37.728382 1.026901,19.456717 1.026901,1.092525 
	C17.564753,1.092525 34.130192,1.092525 50.847816,1.092525 
	C50.847816,19.332352 50.847816,37.666039 50.847816,56.000000 
	C42.124561,56.000000 33.312313,56.000000 24.000088,56.000000 
M37.363525,38.928715 
	C37.615822,37.674114 37.868118,36.419510 38.120411,35.164909 
	C36.913532,35.490631 35.380974,35.457829 34.557629,36.205757 
	C31.430155,39.046761 27.922655,39.222790 24.312986,37.862801 
	C20.541031,36.441669 19.482649,33.217144 19.455479,28.862442 
	C26.056227,28.862442 32.447914,28.862442 38.689960,28.862442 
	C40.809277,19.749746 37.075195,13.548851 29.556089,12.880711 
	C22.799858,12.280359 18.085718,14.862556 15.796837,20.417418 
	C13.044825,27.096249 14.665366,36.134201 19.283781,39.864483 
	C24.035503,43.702438 31.078299,43.546021 37.363525,38.928715 
z"/>
<path fill="#17C571" opacity="1.000000" stroke="none" 
	d="
M37.118759,39.201263 
	C31.078299,43.546021 24.035503,43.702438 19.283781,39.864483 
	C14.665366,36.134201 13.044825,27.096249 15.796837,20.417418 
	C18.085718,14.862556 22.799858,12.280359 29.556089,12.880711 
	C37.075195,13.548851 40.809277,19.749746 38.689960,28.862442 
	C32.447914,28.862442 26.056227,28.862442 19.455479,28.862442 
	C19.482649,33.217144 20.541031,36.441669 24.312986,37.862801 
	C27.922655,39.222790 31.430155,39.046761 34.557629,36.205757 
	C35.380974,35.457829 36.913532,35.490631 38.120411,35.164909 
	C37.868118,36.419510 37.615822,37.674114 37.118759,39.201263 
M26.067438,16.621967 
	C21.591782,17.459351 19.612650,20.198360 19.748501,24.816555 
	C24.887466,24.816555 29.847633,24.816555 34.812683,24.816555 
	C34.622627,18.447323 33.214420,17.011114 26.067438,16.621967 
z"/>
<path fill="#F5FCF9" opacity="1.000000" stroke="none" 
	d="
M26.439459,16.545822 
	C33.214420,17.011114 34.622627,18.447323 34.812683,24.816555 
	C29.847633,24.816555 24.887466,24.816555 19.748501,24.816555 
	C19.612650,20.198360 21.591782,17.459351 26.439459,16.545822 
z"/>
</svg>